<svg width="261" height="18" viewBox="0 0 261 18" fill="none" xmlns="http://www.w3.org/2000/svg">
<path d="M29.7149 15.0034V0.548767H26.5278V15.2892V17.6331H29.7149H37.7928V15.0034H29.7149Z" fill="#AE42C9"/>
<path d="M50.094 0.548767H46.9824V17.9189H50.094V0.548767Z" fill="#AE42C9"/>
<path d="M97.153 3.03617V0.26358H88.303H85.5919H85.1914V17.6337H85.5919H88.303H97.153V15.1441H88.0127V10.3335H96.1893V7.56093H88.0127V2.75034L97.153 3.03617Z" fill="#AE42C9"/>
<path d="M72.2627 0.548767V12.6624L63.0296 1.58349L62.1036 0.548767H59.918V17.9189H62.7944L62.8583 5.45654L72.9913 17.9189H72.8955H74.6022H75.0841V0.548767H72.2627Z" fill="#AE42C9"/>
<path d="M218.006 3.03617V0.26358H209.158H206.447H206.044V17.6337H206.447H209.158H218.006V15.1441H208.868V10.3335H217.045V7.56093H208.868V2.75034L218.006 3.03617Z" fill="#AE42C9"/>
<path d="M168.513 0.548767V12.6624L159.282 1.58349L158.357 0.548767H156.168V17.9189H159.047L159.108 5.45654L169.241 17.9189H169.148H170.855H171.337V0.548767H168.513Z" fill="#AE42C9"/>
<path d="M146.175 0.548767H143.063V17.9189H146.175V0.548767Z" fill="#AE42C9"/>
<path d="M196.675 0.548767L193.351 0.557342L188.492 13.4913L183.631 0.557342L180.31 0.548767L186.832 17.9075V17.9103H186.835H190.15H190.153V17.9075L196.675 0.548767Z" fill="#AE42C9"/>
<path d="M14.8184 17.7797H17.93C17.93 17.7797 10.3977 0.981245 10.3977 0.689694L10.3716 0.743999V0.55249H8.00019C8.00019 0.844041 0.589844 17.6425 0.589844 17.6425H3.60275L5.18467 14.1268H13.1871L14.8184 17.7797ZM6.42117 11.2055L9.16414 4.63135L11.9564 11.2055H6.42117Z" fill="#AE42C9"/>
<path d="M119.021 17.7797H122.133C122.133 17.7797 114.6 0.981245 114.6 0.689694L114.574 0.743999V0.55249H112.203C112.203 0.844041 104.792 17.6425 104.792 17.6425H107.805L109.387 14.1268H117.39L119.021 17.7797ZM110.624 11.2055L113.367 4.63135L116.159 11.2055H110.624Z" fill="#AE42C9"/>
<path d="M260.265 0.548767H254.93H251.52H246.481V3.32136H251.52V17.9189H254.93V3.32136H260.265V0.548767Z" fill="#AE42C9"/>
<path d="M237.076 1.64343V4.5618C237.076 4.5618 232.307 1.10606 229.863 3.41846C229.236 4.01014 229.001 5.95953 230.739 6.83132C232.037 7.48017 233.967 7.82888 235.915 8.74641C236.833 9.1789 237.528 10.087 237.833 10.8187C238.533 12.4908 238.803 15.8694 234.727 17.6301C234.727 17.6301 230.73 18.9593 226.774 16.5783L226.577 13.4655C226.577 13.4655 229.032 15.312 232.086 15.4121C232.086 15.4121 234.724 15.5578 234.872 13.2226C234.872 13.2226 235.151 11.3504 232.606 10.6929C231.044 10.2899 229.018 9.67252 227.616 8.45772C226.873 7.70884 225.294 6.31397 226.603 3.10405C227.065 1.97214 228.702 0.257135 231.52 0.0399011C231.52 0.0399011 234.431 -0.400284 237.076 1.64343Z" fill="#AE42C9"/>
</svg>
