<svg width="70" height="70" viewBox="0 0 70 70" fill="none" xmlns="http://www.w3.org/2000/svg">
<rect width="70" height="70" rx="15" fill="#1877F1"/>
<mask id="mask0" mask-type="alpha" maskUnits="userSpaceOnUse" x="0" y="0" width="70" height="70">
<rect width="70" height="70" rx="11" fill="#3B5998"/>
</mask>
<g mask="url(#mask0)">
<path d="M21.875 30.5371V39.2364H29.4777V72.088C29.4777 72.088 35 72.088 39.5767 72.088V39.2364H46.3473L47.8224 30.5371H39.5011C39.5011 29.6195 39.5011 28.6652 39.5389 27.7475C39.5389 26.9033 39.5389 26.059 39.5767 25.2148C39.5767 24.4073 39.5011 23.5264 39.8793 22.7922C40.7871 20.8835 42.1488 20.5899 44.04 20.5899C45.0991 20.5899 47.1037 20.7 48.1628 20.7V13.0652C45.6286 12.588 43.7374 12.5513 41.5814 12.588C39.5011 12.6247 37.156 12.7716 35.3026 13.7259C32.5792 15.1207 29.8559 17.8737 29.7424 21.0671C29.6668 23.5998 29.7803 26.2059 29.8181 28.7386C29.8181 29.2892 29.8181 29.8397 29.8181 30.3536C29.8181 30.3903 29.8181 30.427 29.8181 30.4637L21.875 30.5371Z" fill="white"/>
</g>
</svg>
