<svg width="62" height="60" viewBox="0 0 62 60" fill="none" xmlns="http://www.w3.org/2000/svg">
<path d="M30.8809 0C13.8253 0 0 13.4307 0 30C0 46.5693 13.8253 60 30.8809 60C47.9364 60 61.7617 46.5693 61.7617 30C61.7617 13.4307 47.9364 0 30.8809 0ZM30.8809 57.4529C15.3064 57.4529 2.67988 45.1861 2.67988 30.0566C2.67988 14.9246 15.3064 2.66023 30.8809 2.66023C46.4553 2.66023 59.0819 14.927 59.0819 30.0566C59.0843 45.1861 46.4577 57.4529 30.8809 57.4529Z" fill="#AE42C9"/>
<path fill-rule="evenodd" clip-rule="evenodd" d="M31.4026 11.7319H30.7303L21.55 31.223H12.8301V33.5086H20.4735L18.3451 38.0276H12.8301V40.3132H17.2686L15.0888 44.9411H18.0271L20.2243 40.3132H41.9062L44.1034 44.9411H47.0417L44.8623 40.3132H49.3028V38.0276H43.786L41.6578 33.5086H49.3028V31.223H40.5815L31.4026 11.7319ZM40.821 38.0276L38.6755 33.5086H23.455L21.3095 38.0276H40.821ZM37.5903 31.223H24.5402L30.7949 18.049L31.0653 17.5071L31.3356 18.049L37.5903 31.223Z" fill="#AE42C9"/>
</svg>
