<svg width="20" height="20" viewBox="0 0 20 20" fill="none" xmlns="http://www.w3.org/2000/svg">
<path fill-rule="evenodd" clip-rule="evenodd" d="M7.87555 10L0.439987 2.56443C-0.146662 1.97778 -0.146662 1.02664 0.439987 0.439987C1.02664 -0.146662 1.97778 -0.146662 2.56443 0.439987L10 7.87555L17.4356 0.439987C18.0222 -0.146662 18.9734 -0.146662 19.56 0.439987C20.1467 1.02664 20.1467 1.97778 19.56 2.56443L12.1244 10L19.56 17.4356C20.1467 18.0222 20.1467 18.9734 19.56 19.56C18.9734 20.1467 18.0222 20.1467 17.4356 19.56L10 12.1244L2.56443 19.56C1.97778 20.1467 1.02664 20.1467 0.439987 19.56C-0.146662 18.9734 -0.146662 18.0222 0.439987 17.4356L7.87555 10Z" fill="#AE42C9"/>
</svg>
